<?xml version="1.0" standalone="no"?>
<!DOCTYPE svg PUBLIC "-//W3C//DTD SVG 20010904//EN"
 "http://www.w3.org/TR/2001/REC-SVG-20010904/DTD/svg10.dtd">
<svg version="1.0" xmlns="http://www.w3.org/2000/svg"
 width="809.000000pt" height="833.000000pt" viewBox="0 0 809.000000 833.000000"
 preserveAspectRatio="xMidYMid meet">
<metadata>
Created by potrace 1.16, written by Peter Selinger 2001-2019
</metadata>
<g transform="translate(0.000000,833.000000) scale(0.100000,-0.100000)"
fill="#000000" stroke="none">
<path d="M0 4165 l0 -4165 4045 0 4045 0 0 4165 0 4165 -4045 0 -4045 0 0
-4165z m3940 3945 c705 -43 1470 -171 2405 -404 314 -78 1145 -303 1154 -312
3 -3 -2 -51 -12 -107 -27 -169 -27 -173 -20 -155 6 12 12 4 24 -33 8 -27 12
-49 8 -49 -3 0 -10 10 -14 23 l-8 22 -4 -23 c-4 -18 -7 -20 -17 -9 -16 15 -17
40 -4 95 8 31 7 46 -2 57 -15 18 -33 20 -27 3 2 -7 10 -12 16 -11 6 2 11 -2
11 -8 0 -14 -25 -39 -39 -39 -6 0 -11 -11 -11 -25 0 -14 -4 -25 -10 -25 -6 0
-7 18 -4 44 7 49 -8 86 -34 86 -11 0 -18 8 -18 20 0 11 1 20 3 20 1 0 18 -9
38 -20 20 -11 40 -20 45 -20 17 0 11 20 -7 27 -10 3 -37 14 -60 24 -23 11 -45
19 -50 19 -7 0 -98 34 -138 52 -11 4 -29 10 -40 12 -11 2 -87 25 -170 52 -82
26 -190 57 -240 69 -49 12 -97 25 -106 29 -10 4 -23 6 -30 5 -8 -1 -23 1 -34
5 -11 4 -31 12 -45 16 -37 13 -250 58 -375 79 -60 11 -122 23 -136 26 -14 4
-40 0 -60 -8 l-34 -15 40 4 c36 3 37 2 10 -5 l-30 -9 29 -1 c32 -1 32 -7 1
-13 -11 -1 -25 -10 -32 -18 -6 -8 -29 -16 -50 -17 -21 -2 -51 -4 -68 -5 -26
-3 -29 0 -32 28 -3 40 25 50 82 29 l40 -15 -50 5 c-36 3 -43 2 -25 -4 34 -12
98 -13 104 -2 4 5 -12 12 -34 16 -22 4 -40 11 -40 15 0 5 -10 11 -22 13 -13 2
5 2 38 0 38 -3 65 0 69 6 4 7 -8 11 -32 12 -21 0 -47 2 -58 4 -119 21 -166 25
-198 20 -28 -4 -37 -2 -31 6 4 7 3 9 -3 6 -5 -3 -40 -2 -79 3 -289 37 -1018
37 -1311 0 -43 -6 -113 -13 -157 -16 -43 -3 -89 -10 -103 -15 -13 -5 -42 -9
-64 -9 -22 0 -50 -5 -62 -12 -12 -6 -40 -12 -62 -13 -64 -4 -144 -16 -230 -35
-162 -37 -382 -89 -440 -105 -33 -9 -78 -21 -100 -27 -70 -18 -359 -110 -390
-123 -16 -7 -68 -25 -115 -40 -47 -15 -89 -30 -95 -34 -5 -4 -46 -20 -90 -36
-44 -15 -105 -39 -135 -52 -30 -14 -77 -34 -105 -44 -27 -11 -68 -28 -90 -38
-22 -11 -58 -27 -80 -36 -111 -48 -348 -169 -338 -172 12 -4 84 26 115 49 14
10 20 10 30 0 9 -9 7 -16 -10 -32 -12 -12 -22 -16 -22 -10 0 5 -7 10 -15 10
-18 0 -20 -17 -2 -23 6 -2 -17 -3 -53 -1 -60 2 -73 -1 -162 -44 l-97 -47 -1
-40 c0 -44 14 -146 30 -210 9 -40 32 -162 46 -245 6 -39 8 -42 14 -20 4 15 7
-4 6 -45 0 -38 6 -87 13 -107 7 -20 27 -101 45 -180 19 -79 43 -179 55 -223
12 -44 26 -96 31 -115 21 -82 28 -104 30 -95 4 17 7 39 8 62 2 20 7 23 42 21
34 -1 40 -4 40 -24 0 -13 4 -26 10 -29 13 -8 13 -65 1 -65 -10 0 -15 13 -26
67 -4 22 -11 30 -21 26 -8 -3 -14 -13 -14 -23 0 -10 -7 -23 -15 -30 -8 -7 -15
-20 -15 -30 0 -17 55 -208 70 -245 5 -11 23 -65 41 -120 18 -55 36 -104 41
-109 4 -6 8 -19 8 -30 1 -26 39 -98 40 -74 0 9 2 22 3 30 2 7 2 10 0 5 -8 -13
-22 3 -17 18 3 7 -2 25 -12 40 -18 28 -13 45 10 26 8 -7 16 -8 18 -4 3 4 4 3
2 -4 -5 -21 19 -87 42 -115 19 -24 21 -31 11 -53 -14 -30 -27 -32 -27 -4 0 11
-4 17 -10 14 -7 -4 -9 3 -5 22 5 25 4 25 -4 6 -10 -21 0 -72 19 -98 4 -5 20
-44 35 -85 27 -73 41 -107 84 -202 11 -26 21 -51 21 -57 0 -6 8 -15 19 -20 10
-6 21 -18 25 -26 3 -9 2 -13 -4 -10 -16 10 -11 -6 20 -70 16 -33 30 -66 30
-72 0 -7 5 -13 10 -13 6 0 10 -6 10 -14 0 -15 179 -372 205 -409 8 -12 15 -28
15 -36 0 -7 6 -19 14 -25 7 -6 29 -41 49 -77 19 -36 67 -118 106 -182 39 -64
71 -121 71 -126 0 -5 4 -11 9 -13 7 -2 60 -78 96 -137 45 -74 60 -97 65 -101
3 -3 21 -29 40 -57 19 -29 39 -53 44 -53 5 0 2 8 -7 18 -10 10 -17 22 -17 26
0 4 -9 21 -21 37 -11 16 -17 29 -13 29 3 0 1 7 -6 15 -18 22 -5 30 25 17 27
-13 42 -38 30 -50 -4 -4 -10 -1 -12 6 -3 6 -9 12 -14 12 -6 0 -3 -10 5 -22 9
-12 16 -30 16 -39 0 -9 7 -20 16 -23 9 -4 14 -13 10 -22 -6 -16 37 -91 63
-111 9 -6 16 -16 16 -21 0 -14 136 -194 142 -188 3 3 0 13 -8 22 -13 16 -12
16 9 5 16 -9 21 -18 17 -31 -6 -18 21 -56 120 -177 6 -7 15 -18 21 -25 91
-112 219 -252 228 -250 6 2 8 0 4 -4 -4 -4 14 -32 41 -63 90 -103 389 -406
395 -400 3 3 -1 20 -10 38 -11 22 -19 29 -24 21 -5 -8 -10 -9 -14 -1 -10 16
42 25 69 13 27 -13 48 -70 32 -89 -10 -14 -31 -7 -22 8 4 5 2 9 -4 9 -26 0
-15 -21 38 -71 110 -104 197 -184 269 -248 40 -35 87 -77 105 -93 17 -16 50
-43 72 -61 21 -18 54 -47 73 -65 19 -17 36 -32 39 -32 3 0 27 -18 54 -41 36
-30 49 -37 49 -24 0 9 -9 19 -21 22 -12 3 -18 11 -15 19 3 8 0 13 -7 11 -7 -1
-11 6 -10 16 1 13 -4 17 -15 12 -13 -5 -14 -3 -5 6 13 13 37 3 28 -12 -4 -5 2
-9 12 -9 24 -1 56 -46 48 -69 -4 -14 4 -27 32 -47 21 -16 48 -39 60 -51 12
-13 26 -23 30 -23 5 0 22 -12 38 -27 16 -16 32 -28 35 -28 3 0 18 -11 33 -25
16 -14 32 -25 36 -25 4 0 23 -14 42 -32 19 -18 54 -45 78 -62 l45 -29 95 51
c137 72 133 70 166 93 17 11 39 24 50 29 19 7 19 8 -4 14 -21 6 -22 8 -7 20 9
7 16 20 16 28 0 8 4 12 9 9 11 -7 71 16 71 27 0 5 7 15 15 24 14 14 14 17 -2
29 -16 12 -17 13 -1 14 9 0 20 -5 23 -10 4 -6 14 -10 23 -9 32 3 44 -1 39 -13
-2 -8 -16 -12 -35 -10 -26 3 -32 -1 -38 -22 -6 -25 -78 -71 -96 -60 -4 3 -8 0
-8 -5 0 -29 108 18 133 56 4 7 13 13 18 13 9 0 96 56 194 124 32 22 45 36 45
49 0 16 -22 6 -27 -12 -3 -13 -10 -18 -21 -14 -8 4 -13 2 -9 -3 3 -5 -12 -19
-34 -31 -21 -12 -39 -17 -39 -12 0 5 11 15 25 21 30 13 28 32 -4 36 -33 5 -23
37 12 37 16 1 31 6 35 12 9 14 82 22 82 8 0 -5 5 -3 11 5 8 12 10 12 7 1 -3
-10 -19 -15 -49 -15 -38 -1 -44 -4 -47 -24 -4 -25 13 -30 22 -7 6 17 46 21 46
4 0 -7 9 -5 23 5 12 9 32 21 45 26 29 12 23 36 -7 32 -20 -2 -21 0 -7 13 8 9
19 16 23 16 4 0 17 9 28 19 14 13 25 16 35 10 8 -5 11 -10 5 -10 -15 -1 -59
-40 -52 -46 6 -6 112 73 183 135 108 95 168 147 178 153 28 16 195 192 190
200 -3 4 6 22 20 39 14 17 26 27 26 23 0 -4 -10 -18 -22 -31 -35 -38 -16 -35
25 4 29 26 36 40 32 56 -5 16 -4 18 3 8 8 -11 14 -9 31 8 11 11 18 21 14 21
-4 0 8 13 27 29 20 17 31 33 26 38 -5 4 -11 2 -13 -4 -3 -7 -13 -13 -23 -13
-23 0 -44 -26 -36 -45 3 -9 0 -15 -9 -15 -22 0 -18 37 5 60 11 11 29 20 41 20
11 0 17 4 14 10 -3 6 1 7 9 4 12 -5 16 0 16 19 0 14 7 28 16 31 26 10 28 -1 5
-30 -32 -40 -15 -43 19 -3 29 34 43 59 54 93 4 10 9 16 12 13 30 -29 -240
-481 -467 -785 -338 -450 -831 -873 -1291 -1107 l-97 -50 -68 35 c-137 70
-395 225 -498 300 -163 119 -341 255 -392 301 -22 18 -53 45 -69 58 -228 187
-651 605 -971 961 -67 74 -168 180 -225 236 -237 231 -513 545 -698 794 -35
47 -66 87 -69 90 -19 16 -283 411 -367 550 -150 245 -377 673 -468 880 -15 36
-44 101 -63 145 -154 352 -352 907 -453 1275 -17 63 -38 135 -45 160 -64 210
-269 1167 -252 1175 1 0 18 12 37 26 43 31 324 204 405 249 653 365 1418 596
2200 664 99 9 203 18 230 19 126 8 717 6 865 -3z m-712 -1157 c12 -2 22 2 22
7 0 6 7 10 15 10 11 0 15 -10 14 -37 -2 -31 -3 -33 -6 -10 -6 38 -23 34 -23
-7 0 -32 23 -56 35 -37 3 5 33 9 67 10 53 0 74 -6 136 -37 56 -28 69 -38 55
-43 -15 -6 -14 -8 7 -10 23 -2 23 -2 3 -6 -13 -2 -42 7 -68 22 -25 15 -45 23
-46 18 0 -4 -3 -1 -7 8 -5 11 -14 13 -32 9 l-25 -7 30 -13 c49 -20 189 -71
210 -77 11 -3 34 -11 52 -19 17 -8 35 -14 41 -14 5 0 27 -8 48 -17 22 -9 41
-17 44 -18 3 -1 19 -5 35 -10 17 -5 45 -17 63 -27 18 -10 39 -18 48 -18 8 0
25 -6 37 -14 12 -8 44 -18 72 -22 27 -4 55 -13 63 -20 7 -7 31 -18 54 -24 22
-7 50 -16 62 -22 47 -24 56 -28 71 -28 8 0 15 -5 15 -11 0 -5 4 -8 9 -4 10 6
62 -14 72 -27 3 -5 20 -3 38 3 17 6 35 9 38 5 4 -3 1 -6 -5 -6 -7 0 -12 -5
-12 -11 0 -6 6 -9 14 -6 8 3 17 -1 20 -9 3 -9 10 -12 16 -9 7 4 5 14 -5 28 -8
12 -15 24 -15 27 0 12 62 4 70 -10 13 -20 13 -40 0 -40 -5 0 -10 9 -10 20 0
11 -4 20 -10 20 -16 0 -12 -37 6 -55 9 -9 23 -14 31 -11 8 3 11 1 8 -4 -3 -6
0 -10 7 -10 17 -1 58 -38 83 -75 15 -25 20 -54 25 -165 5 -123 6 -133 19 -110
8 14 22 31 33 38 10 7 18 19 18 27 0 7 16 23 35 35 20 12 43 29 52 38 9 10 19
17 22 18 3 0 20 6 36 13 50 21 67 24 153 28 78 4 97 12 70 30 -13 8 -18 9 -38
12 -5 0 -18 18 -27 39 -16 33 -23 38 -63 43 l-45 6 40 3 c22 2 -12 6 -75 9
-63 3 -117 5 -119 4 -2 -2 7 -7 20 -12 16 -7 18 -10 7 -10 -9 -1 -23 2 -32 5
-28 11 1 94 33 94 6 0 8 7 5 15 -8 19 -5 19 37 0 19 -8 26 -14 17 -15 -10 0
-18 -4 -18 -10 0 -12 5 -13 28 -1 24 13 104 36 120 34 6 0 12 3 12 8 0 5 8 9
18 9 10 0 22 4 28 9 14 13 107 46 122 43 6 -2 12 2 12 8 0 5 6 10 13 10 7 0
18 9 25 20 7 11 20 20 30 20 15 0 15 -2 2 -11 -12 -8 -10 -9 10 -5 14 3 31 6
38 6 18 0 15 18 -5 23 -14 4 -12 5 5 6 12 0 22 -3 22 -8 0 -8 65 12 125 38 33
15 59 25 70 27 32 5 74 27 69 36 -4 6 1 8 14 4 11 -4 35 0 53 8 19 8 45 17 59
20 30 7 56 23 49 30 -2 3 -19 -2 -38 -11 -22 -11 -35 -13 -39 -6 -4 6 -16 13
-27 16 -12 3 -4 5 18 6 23 1 36 5 32 11 -7 12 1 12 44 4 17 -4 28 -11 25 -16
-4 -6 2 -8 11 -6 10 1 20 9 23 17 3 8 0 11 -5 8 -5 -3 -15 -2 -22 3 -10 6 -6
12 18 24 31 16 51 14 51 -5 0 -5 -7 -9 -15 -9 -8 0 -15 -4 -15 -10 0 -5 5 -10
11 -10 10 0 65 22 100 40 9 5 33 12 54 16 20 3 39 12 41 18 2 6 23 12 46 13
23 2 44 6 47 11 10 15 70 34 86 28 16 -6 21 -61 6 -70 -5 -4 -12 -28 -16 -55
-6 -41 -19 -74 -73 -183 -2 -5 3 -8 12 -8 9 0 18 11 22 25 5 22 26 38 23 18
-1 -5 -1 -15 0 -23 1 -13 2 -13 11 0 8 11 10 6 8 -20 -2 -26 -8 -36 -23 -38
-16 -3 -18 -1 -7 9 19 20 15 24 -22 23 -24 -1 -48 -12 -75 -35 -44 -35 -51
-49 -26 -49 9 0 20 12 26 28 7 17 13 22 16 14 3 -8 0 -24 -7 -37 -9 -17 -21
-23 -47 -23 -28 0 -32 2 -22 14 14 17 -2 19 -19 2 -9 -9 -7 -14 6 -24 14 -11
15 -13 1 -14 -8 0 -20 5 -26 11 -8 8 -20 8 -40 2 -27 -9 -27 -10 17 -17 37 -7
41 -10 25 -16 -11 -5 -33 -8 -50 -8 -29 1 -29 1 5 8 l35 7 -43 2 c-31 1 -41 4
-36 14 6 10 4 10 -7 0 -7 -7 -21 -13 -31 -13 -10 0 -18 -7 -18 -16 0 -14 13
-16 102 -13 100 4 101 4 103 -19 1 -13 -3 -29 -9 -35 -20 -21 -56 -88 -56
-104 0 -9 -3 -13 -7 -9 -11 11 -73 -56 -73 -80 0 -20 -4 -22 -32 -18 -36 4
-99 -13 -110 -30 -6 -8 -10 -8 -16 1 -5 9 -41 11 -126 8 -132 -4 -169 -15 -55
-16 41 0 101 -4 134 -8 62 -8 89 -5 80 9 -3 5 4 6 15 3 11 -3 20 0 20 6 0 6 7
11 15 11 28 0 16 -30 -12 -31 -16 0 -22 -3 -15 -6 6 -2 12 -12 12 -21 0 -19
-126 -142 -146 -142 -8 0 -17 -6 -20 -13 -2 -7 -18 -14 -35 -15 -17 -1 -38 -9
-46 -17 -9 -9 -24 -13 -38 -9 -12 3 -26 1 -30 -6 -4 -6 -16 -8 -28 -5 -15 4
-18 3 -9 -3 7 -5 35 -7 63 -4 35 3 49 1 49 -8 0 -7 -9 -10 -22 -7 -13 3 -32 2
-43 -2 -18 -7 -50 3 -65 20 -13 15 -40 17 -40 4 0 -8 3 -14 8 -13 15 3 62 -26
62 -38 0 -7 -17 -25 -37 -39 -21 -14 -31 -25 -22 -25 9 0 19 3 22 7 11 11 58
10 54 -2 -2 -5 -29 -10 -59 -10 -42 0 -55 -3 -54 -14 1 -8 -16 -21 -39 -29
-22 -8 -47 -17 -55 -20 -9 -3 -2 -8 20 -13 33 -7 32 -7 -5 -3 -66 9 -118 9
-153 2 -21 -5 -31 -4 -27 2 3 6 17 10 31 10 13 0 24 5 24 10 0 6 -8 10 -17 10
-9 0 -14 2 -12 4 3 3 30 1 62 -3 58 -8 127 5 127 23 0 4 -6 6 -14 3 -41 -16
-93 -18 -146 -6 -33 7 -60 17 -60 21 0 4 -7 8 -16 8 -9 0 -30 9 -47 21 l-32
21 28 -26 c15 -14 23 -26 17 -26 -6 0 -5 -11 5 -30 17 -34 21 -161 5 -191 -7
-11 -7 -19 -1 -19 5 0 12 6 14 13 3 7 6 5 6 -5 1 -10 -4 -18 -10 -18 -6 0 -29
-20 -52 -44 -23 -24 -50 -46 -60 -50 -12 -4 -17 -14 -15 -28 2 -17 -3 -24 -19
-26 -18 -3 -23 1 -22 20 0 13 5 32 10 43 7 15 8 12 4 -15 l-4 -35 11 32 c9 27
7 36 -13 65 -13 18 -28 36 -34 40 -5 4 -6 8 -2 8 11 0 -25 60 -36 60 -4 0 -6
3 -3 8 2 4 -2 18 -11 32 -8 14 -12 18 -10 10 2 -8 10 -39 17 -67 9 -33 20 -55
31 -58 19 -6 44 -58 36 -77 -3 -7 -6 -3 -6 10 -1 12 -5 22 -11 22 -5 0 -11 8
-11 18 -1 15 -2 15 -6 0 -2 -9 3 -33 11 -53 9 -21 16 -46 16 -56 0 -22 25 -24
110 -9 99 18 93 19 94 -25 l1 -40 -95 -11 c-52 -7 -109 -17 -127 -22 -17 -6
-34 -7 -38 -4 -4 5 -49 -13 -83 -34 -2 -1 3 -11 10 -23 9 -15 23 -21 50 -21
21 0 38 -4 38 -10 0 -12 -44 -24 -68 -18 -10 3 -23 -1 -30 -9 -14 -15 -66 -18
-57 -4 8 15 -15 25 -28 12 -19 -19 -42 -12 -77 24 -40 41 -54 42 -189 16 -103
-21 -121 -19 -114 10 3 10 0 19 -6 19 -6 0 -11 -8 -11 -17 0 -13 -3 -14 -12
-5 -9 9 -9 15 0 24 17 17 15 31 -3 25 -8 -4 -17 -2 -21 4 -3 6 -19 7 -35 4
-19 -4 -29 -3 -29 5 0 6 4 9 9 6 5 -4 21 -2 35 4 16 6 27 6 31 0 4 -7 13 -6
25 0 24 13 30 13 30 -3 0 -10 17 -10 80 -3 l81 10 -37 31 c-32 28 -36 36 -32
66 7 48 42 173 50 179 3 3 9 19 13 35 6 27 4 25 -23 -15 -20 -30 -26 -47 -18
-52 7 -5 6 -8 -3 -8 -20 0 -40 -31 -41 -63 0 -16 -4 -26 -10 -22 -5 3 -10 -3
-10 -14 0 -14 5 -19 15 -15 12 5 15 0 14 -22 -2 -16 1 -39 5 -52 5 -16 3 -24
-9 -28 -13 -5 -14 -8 -3 -15 8 -5 -1 -8 -24 -7 -33 1 -36 3 -27 20 7 13 17 17
29 13 16 -5 18 -1 17 30 -1 23 -6 34 -14 30 -8 -2 -13 4 -13 15 0 27 -58 65
-99 65 -20 0 -35 5 -37 13 -1 7 0 8 3 2 5 -12 23 -4 23 11 0 5 -16 9 -36 9
-31 0 -35 3 -28 18 4 9 7 26 6 37 -1 11 -3 50 -6 88 -4 58 -3 67 12 67 15 0
17 -11 16 -80 -1 -53 2 -78 9 -73 6 4 8 -1 6 -13 -3 -12 6 -29 23 -46 32 -31
37 -22 9 14 -24 30 -43 128 -35 179 5 32 4 39 -10 39 -9 0 -16 8 -16 18 0 17
-5 18 -57 10 -32 -5 -78 -7 -103 -3 -25 3 -60 6 -78 5 -24 0 -33 3 -30 12 3 8
-12 22 -35 33 -22 11 -47 31 -55 43 -14 21 -14 23 4 28 10 3 37 13 59 24 l40
18 -38 -4 c-21 -2 -48 -10 -60 -18 -12 -7 -41 -13 -64 -12 -41 2 -56 -7 -30
-17 6 -3 8 -6 2 -6 -5 0 -17 4 -25 9 -13 9 -13 11 0 20 8 5 28 10 44 10 16 0
26 3 22 7 -8 9 -13 9 -73 11 -35 2 -41 5 -36 19 5 13 2 15 -15 11 -14 -4 -20
-2 -15 5 4 7 0 8 -13 2 -34 -14 -59 -11 -58 7 1 10 -4 14 -12 11 -8 -3 -14 1
-14 11 0 19 5 20 31 5 11 -5 17 -14 14 -20 -4 -5 1 -9 9 -9 9 0 16 4 16 8 0
10 -53 62 -63 62 -4 0 -21 13 -37 29 -30 28 -40 70 -17 72 60 3 133 11 137 16
3 3 -30 3 -73 1 -47 -3 -80 -1 -84 5 -4 6 0 8 11 4 10 -4 22 -4 28 -1 5 4 -22
22 -61 41 -55 26 -82 47 -119 93 -26 32 -50 59 -54 59 -13 2 5 -33 24 -47 10
-7 18 -20 18 -29 0 -13 -5 -12 -25 7 -14 13 -25 20 -25 15 0 -4 8 -14 18 -21
16 -12 16 -13 0 -14 -9 0 -20 5 -24 11 -4 8 -9 8 -13 1 -3 -6 -7 7 -7 28 -1
27 2 37 10 33 6 -3 9 -4 6 0 -3 3 -9 7 -15 9 -12 4 -43 64 -47 92 -2 13 3 22
15 24 11 2 17 -2 16 -10 -4 -21 12 -66 27 -79 18 -15 18 -8 -1 27 -9 17 -13
40 -9 57 3 16 1 27 -5 27 -6 0 -13 11 -17 25 -3 13 -12 29 -20 36 -8 6 -14 19
-13 28 0 12 4 11 16 -6 8 -13 22 -23 29 -23 8 0 14 -4 14 -9 0 -5 14 -13 31
-16 23 -5 28 -9 18 -16 -9 -5 8 -8 46 -8 33 0 56 2 50 4 -5 2 -35 11 -65 20
-30 9 -74 31 -98 48 -32 23 -45 28 -51 19 -6 -9 -15 -10 -33 -3 -14 5 -28 8
-31 5 -7 -7 -39 45 -33 55 3 4 -5 6 -18 4 -24 -5 -24 -4 -13 28 7 19 16 40 20
47 5 6 4 12 -1 12 -11 0 -45 101 -36 109 8 8 34 -29 34 -50 0 -10 5 -21 11
-24 6 -4 8 -24 5 -49 -4 -25 -3 -34 2 -22 9 20 13 16 25 -16 4 -13 2 -15 -10
-11 -11 4 -14 2 -9 -5 4 -7 11 -12 17 -12 14 0 46 -35 42 -47 -2 -6 0 -14 4
-16 19 -12 10 36 -13 71 -14 20 -28 49 -31 65 -3 15 -10 30 -14 33 -5 3 -9 16
-9 29 0 13 -7 31 -17 40 -12 13 -13 19 -4 24 9 6 9 14 0 34 -23 50 -3 61 71
42 19 -5 22 -4 10 4 -10 7 -11 11 -3 11 7 0 18 -9 25 -20 15 -24 28 -26 28 -5
0 21 -43 47 -66 39 -18 -5 -18 -5 0 10 11 9 22 13 25 8 3 -4 16 -8 29 -9z
m3440 -1283 c7 0 11 4 8 9 -3 4 12 8 34 8 22 0 40 -4 40 -8 0 -5 9 -9 20 -9
11 0 20 -6 20 -13 0 -10 10 -12 33 -8 l32 5 -30 7 c-16 4 -22 7 -12 8 9 0 17
4 17 9 0 4 11 8 25 8 14 1 23 -2 20 -6 -4 -7 4 -63 21 -145 29 -145 30 -165 5
-165 -11 0 -23 -4 -26 -10 -3 -5 -12 -10 -19 -10 -9 0 -17 32 -26 105 -12 87
-17 105 -31 105 -19 0 -34 55 -23 84 3 9 3 16 0 16 -4 0 -11 -10 -16 -22 -8
-22 -9 -22 -9 4 -1 28 -22 50 -29 30 -2 -7 -21 -12 -42 -12 -21 0 -42 -5 -46
-11 -4 -7 -9 -8 -17 0 -7 7 -6 15 3 26 9 11 16 13 24 5 5 -5 16 -10 24 -10z
m-463 -71 c-31 -8 59 -5 189 6 38 3 74 1 80 -4 6 -5 33 -5 66 0 59 9 70 3 70
-38 0 -15 -7 -24 -22 -27 -62 -13 -84 -17 -98 -20 -8 -2 -50 -6 -93 -11 -42
-4 -80 -12 -83 -17 -9 -15 -34 12 -34 38 0 15 -6 24 -16 24 -10 0 -14 6 -10
15 4 12 -5 14 -45 13 -32 0 -46 -4 -37 -9 9 -6 7 -9 -9 -9 -20 0 -23 -5 -23
-37 l-1 -38 -13 30 c-11 25 -11 31 1 38 9 6 13 18 9 31 -5 21 -2 23 47 23 44
0 47 -1 22 -8z m580 -49 c15 0 19 -13 30 -90 3 -25 8 -56 11 -70 4 -22 3 -23
-5 -5 -9 20 -10 20 -10 -1 -1 -12 9 -26 24 -34 28 -15 32 -28 11 -36 -8 -3
-17 -12 -20 -19 -8 -21 17 -8 38 20 10 14 24 25 30 25 6 0 4 -5 -4 -10 -12 -8
-11 -10 7 -10 13 0 24 8 28 20 3 11 10 20 15 20 9 0 22 -42 15 -49 -3 -2 -5 1
-5 7 0 7 -4 12 -9 12 -5 0 -7 -18 -4 -41 5 -35 3 -41 -16 -46 -11 -3 -21 -10
-21 -15 0 -6 6 -8 13 -5 50 19 55 18 69 -10 10 -20 20 -27 36 -26 14 2 22 -3
22 -12 0 -8 -6 -15 -14 -15 -23 0 -29 -36 -11 -64 11 -16 14 -34 10 -48 -12
-41 -30 -78 -37 -78 -4 0 -6 -6 -4 -12 14 -46 15 -78 1 -78 -23 0 -65 -22 -59
-32 3 -4 -2 -15 -10 -24 -9 -8 -16 -25 -15 -37 1 -20 2 -20 9 3 8 24 8 24 9
-7 1 -25 -2 -30 -16 -27 -14 4 -18 16 -19 49 0 24 3 42 8 39 10 -6 11 10 1 20
-4 4 -9 26 -10 49 -2 30 0 38 7 27 5 -8 10 -27 10 -42 0 -16 4 -28 9 -28 9 0
8 24 -4 100 -10 65 -16 105 -22 163 -5 53 -4 57 15 57 11 0 24 5 27 10 4 7 -3
9 -19 6 -14 -3 -29 0 -32 6 -4 7 -2 8 4 4 7 -4 12 -3 12 2 0 6 -7 12 -15 16
-8 3 -15 15 -15 26 0 11 -4 20 -10 20 -12 0 -12 2 -1 -38 6 -20 6 -32 0 -32
-5 0 -9 6 -9 14 0 8 -5 18 -12 22 -8 5 -9 0 -6 -14 4 -12 2 -22 -3 -22 -18 0
-22 52 -6 86 10 19 12 36 7 39 -5 3 -15 24 -21 45 -14 45 -23 50 -39 20 -12
-22 -40 -27 -40 -7 1 16 35 57 48 57 6 0 12 20 14 44 2 36 0 46 -14 50 -13 3
-18 14 -17 38 l1 33 9 -32 c5 -18 16 -33 24 -33z m-670 -51 c9 -38 7 -39 -47
-45 -23 -2 -63 -9 -88 -14 -106 -22 -173 -31 -180 -23 -5 4 -10 19 -13 33 -3
19 -5 16 -6 -12 -1 -45 -10 -70 -22 -62 -5 3 -6 -1 -3 -9 3 -8 18 -17 35 -21
20 -4 29 -11 29 -25 0 -16 6 -18 50 -14 45 4 50 2 50 -17 0 -11 -6 -20 -12
-19 -28 3 -48 -2 -48 -12 0 -6 14 -9 33 -7 27 2 33 -1 35 -19 2 -13 -1 -23 -7
-23 -5 0 -12 -10 -14 -22 -4 -22 -4 -22 -6 2 -3 47 -13 53 -70 41 -70 -15 -82
-14 -74 5 5 14 -1 15 -48 11 -30 -3 -66 -8 -81 -12 -18 -5 -28 -3 -28 4 0 6
12 11 26 11 16 0 24 5 21 13 -2 6 -10 11 -16 9 -7 -1 -11 3 -9 10 1 7 -4 23
-11 36 -11 21 -18 23 -69 18 -87 -7 -90 -8 -52 -17 24 -5 9 -7 -49 -4 -53 2
-79 0 -70 -6 8 -5 11 -9 7 -9 -3 0 -13 -3 -22 -6 -10 -4 -16 -1 -16 9 0 16 12
22 70 31 26 4 30 4 15 -3 -11 -5 -14 -10 -7 -10 7 -1 23 6 35 14 13 8 38 14
57 13 19 0 45 2 57 6 12 4 24 2 28 -4 10 -16 21 -12 33 15 7 15 8 25 2 25 -6
0 -10 -4 -10 -10 0 -5 -6 -7 -13 -4 -8 3 -43 0 -78 -6 -35 -6 -80 -13 -99 -15
-66 -7 -100 -16 -100 -27 0 -6 -13 -8 -31 -6 -17 3 -49 2 -70 -2 -36 -7 -39
-5 -48 22 -14 38 -4 58 28 59 23 0 24 1 6 9 -18 8 -17 9 7 9 15 1 32 9 37 19
8 13 11 14 11 2 1 -12 3 -12 14 3 12 15 15 15 26 2 10 -13 9 -15 -8 -15 -17 0
-20 -5 -17 -37 2 -21 3 -44 4 -50 1 -7 5 -13 9 -13 5 0 8 19 8 41 -1 34 3 42
19 45 11 2 77 11 148 21 124 17 127 18 128 43 0 14 2 21 4 15 1 -5 8 -28 15
-50 9 -32 16 -40 36 -40 13 0 24 3 24 8 0 4 -9 7 -20 7 -11 0 -20 6 -20 14 0
8 -4 16 -10 18 -6 2 -5 12 3 27 11 22 19 24 100 27 48 1 87 -1 87 -6 0 -5 12
-6 28 -4 56 11 208 32 234 33 22 1 28 -4 33 -30z m261 -269 c7 -37 12 -48 16
-35 3 11 3 -2 1 -30 -3 -27 0 -77 7 -110 6 -33 13 -70 15 -82 2 -12 6 -34 9
-50 3 -15 13 -77 22 -138 8 -60 17 -121 19 -135 2 -14 7 -53 11 -88 3 -35 12
-82 20 -105 12 -41 12 -40 8 38 -2 44 -7 99 -10 123 -5 36 -4 41 10 36 11 -4
16 -19 16 -45 0 -32 3 -39 20 -39 13 0 20 -7 20 -20 0 -11 -4 -20 -10 -20 -5
0 -10 7 -10 16 0 8 -4 12 -10 9 -13 -8 -13 -76 0 -110 6 -17 6 -24 0 -20 -6 4
-8 -5 -6 -22 2 -15 1 -20 -1 -10 -2 9 -8 17 -13 17 -5 0 -8 -6 -6 -12 2 -7 12
-67 22 -133 9 -66 20 -123 23 -127 6 -7 126 7 161 19 8 3 49 5 90 6 l75 2 7
-40 c30 -182 38 -238 34 -242 -2 -3 -24 -8 -48 -11 l-43 -6 35 -7 c34 -6 34
-6 5 -7 -16 0 -39 3 -49 7 -23 9 -139 -7 -147 -20 -3 -5 -14 -8 -25 -7 -10 1
-41 -1 -69 -6 -27 -4 -95 -14 -150 -22 -54 -8 -105 -19 -111 -25 -8 -6 -14 -4
-19 8 -9 21 -9 18 -41 238 -13 94 -30 206 -38 250 -8 44 -21 130 -30 190 -9
61 -21 137 -27 170 -5 33 -12 80 -14 105 -2 25 -7 55 -10 68 -16 64 -37 204
-50 327 -8 75 -22 106 -36 83 -7 -10 -9 -9 -9 3 0 16 26 34 43 31 4 -1 27 2
52 8 24 5 75 13 112 16 37 3 70 8 73 11 2 2 13 3 24 1 16 -2 23 -15 32 -58z
m-2226 6 c0 -8 8 -17 18 -20 17 -6 26 -46 10 -46 -4 0 -8 6 -8 14 0 8 -4 17
-9 21 -6 3 -9 -7 -8 -22 2 -23 -3 -28 -33 -35 -19 -4 -64 -10 -99 -13 -37 -2
-68 -10 -75 -18 -6 -8 -20 -19 -31 -25 -11 -6 -14 -12 -7 -12 6 0 12 -4 12 -9
0 -5 -9 -7 -20 -4 -11 3 -20 12 -20 19 0 8 9 14 20 14 11 0 20 4 20 9 0 12
-43 1 -52 -13 -11 -15 -27 11 -29 44 -1 21 -3 20 -11 -10 -6 -19 -13 -42 -16
-50 -3 -8 -4 -18 -4 -22 1 -5 -5 -8 -13 -8 -8 0 -15 6 -15 13 -1 6 -13 -3 -29
-20 -35 -42 -60 -42 -89 0 l-22 33 -118 -17 c-65 -10 -129 -22 -143 -27 -20
-8 -28 -7 -37 8 -9 14 -8 20 1 23 9 4 9 7 0 18 -16 16 -17 49 -2 49 5 0 7 -5
3 -12 -5 -8 5 -9 37 -4 24 4 67 10 94 12 28 3 61 9 75 14 14 5 39 10 55 12 24
2 31 8 33 31 2 15 7 27 12 27 4 0 7 -11 5 -25 -1 -14 2 -28 6 -31 5 -3 9 4 9
14 0 22 39 37 54 22 7 -7 0 -10 -17 -10 -15 0 -27 -5 -27 -11 0 -10 31 -7 82
7 12 4 19 -2 24 -20 11 -45 2 -61 -36 -61 -31 0 -35 3 -38 28 -4 34 -35 34
-40 -1 -3 -16 0 -20 12 -16 11 4 16 1 16 -10 0 -19 59 -22 91 -5 16 8 19 16
13 42 -11 53 -23 70 -40 56 -12 -10 -13 -9 -8 5 14 36 53 9 55 -38 l1 -31 7
30 c6 29 7 30 111 43 58 7 112 16 120 19 8 3 28 7 45 9 16 1 31 7 33 13 5 16
22 14 22 -3z m1748 -98 c6 -40 14 -103 18 -139 l6 -65 -123 -18 c-68 -9 -141
-19 -161 -22 -32 -5 -38 -10 -38 -30 0 -13 5 -24 11 -24 5 0 19 -20 30 -45 16
-36 18 -51 9 -77 -10 -33 -10 -33 -5 7 4 35 3 37 -6 15 -12 -28 -3 -130 12
-130 5 0 7 10 4 23 -3 12 2 40 10 62 l15 40 -7 -57 c-7 -68 -20 -64 140 -42
69 10 121 13 126 8 4 -5 16 -63 25 -129 10 -66 22 -123 28 -126 5 -3 1 -9 -9
-13 -15 -6 -270 -45 -297 -46 -4 0 -5 -8 -1 -17 6 -16 15 -66 43 -263 l7 -45
45 3 c25 2 59 7 75 12 31 10 56 14 141 25 46 6 51 9 46 27 -5 20 -6 20 -18 4
-9 -13 -28 -18 -72 -19 -33 -1 -59 -5 -56 -8 2 -4 -13 -9 -34 -13 -53 -8 -72
-7 -72 4 0 17 54 38 90 34 28 -3 31 -2 15 5 -19 9 -19 10 3 10 13 1 22 -5 22
-14 0 -8 5 -15 10 -15 6 0 10 5 10 10 0 6 13 10 29 10 26 0 30 4 36 41 8 49
28 47 36 -4 7 -45 17 -57 29 -37 8 13 10 12 10 -2 0 -10 -4 -18 -8 -18 -5 0
-3 -39 5 -87 16 -104 40 -214 42 -193 1 8 5 45 10 83 4 37 3 67 -1 67 -4 0 -8
-12 -8 -27 l0 -28 -13 25 c-16 30 -11 57 14 70 14 8 21 5 33 -12 18 -25 22
-73 6 -63 -13 8 -17 -6 -23 -75 -3 -30 -2 -46 2 -36 7 19 8 19 13 -2 5 -17 2
-22 -15 -21 -12 0 -96 -14 -187 -30 -112 -21 -144 -29 -100 -26 36 2 72 0 80
-5 8 -5 -31 -7 -96 -5 -120 4 -154 -1 -154 -20 0 -17 -56 -36 -86 -29 -16 4
-24 2 -24 -6 0 -15 -89 -5 -105 12 -10 10 -5 9 55 -8 12 -3 20 -1 20 7 0 8 13
10 43 6 32 -5 48 -2 67 13 25 20 25 20 3 20 -13 0 -23 -4 -23 -9 0 -4 -17 -9
-37 -10 -21 -1 -54 -2 -73 -4 l-35 -2 -17 120 c-9 66 -33 219 -53 340 -31 192
-57 361 -69 445 -76 521 -74 510 -87 489 -5 -7 -9 -9 -9 -3 0 6 3 14 7 18 4 4
8 17 8 28 0 17 7 22 35 25 19 2 53 7 75 12 22 6 74 15 115 21 151 22 263 40
266 42 1 2 31 4 67 6 l64 3 11 -73z m-2628 -20 c0 -5 -7 -8 -15 -8 -8 0 -15
-4 -15 -9 0 -6 12 -9 28 -8 18 1 27 -3 28 -13 1 -8 2 -21 3 -29 1 -7 7 -11 16
-7 8 3 15 4 15 2 0 -3 3 -11 6 -20 4 -11 1 -16 -10 -16 -9 0 -16 4 -16 9 0 6
-14 5 -35 0 -43 -12 -55 -6 -55 28 0 18 -4 24 -15 19 -8 -3 -14 0 -12 6 1 6
-3 12 -9 15 -8 3 -10 -10 -7 -42 3 -25 2 -45 -3 -45 -5 0 -54 -7 -109 -15 -55
-8 -103 -15 -107 -15 -5 0 -8 -7 -8 -16 0 -8 5 -12 10 -9 6 3 10 -3 10 -14 0
-14 -5 -19 -15 -15 -10 4 -15 0 -15 -12 0 -16 -2 -17 -11 -4 -8 11 -12 12 -16
3 -2 -7 -15 -13 -28 -13 -13 0 -26 -4 -29 -9 -8 -12 39 -23 69 -15 19 5 25 2
25 -10 0 -22 30 -20 31 2 1 9 4 4 8 -12 6 -31 31 -48 31 -22 0 20 17 29 23 13
2 -7 -3 -22 -13 -34 -14 -18 -23 -20 -46 -14 -16 5 -28 13 -26 20 1 6 -2 11
-8 11 -5 0 -10 7 -10 15 0 8 -4 15 -9 15 -5 0 -5 -16 -1 -37 11 -45 8 -50 -30
-55 -35 -5 -45 5 -49 50 -2 30 0 32 31 34 25 1 20 3 -17 7 -45 5 -50 9 -53 34
-2 15 -7 27 -11 27 -5 0 -6 12 -3 26 3 19 7 22 13 12 5 -7 9 -23 9 -35 0 -13
5 -23 11 -23 6 0 9 6 6 13 -3 8 -8 39 -12 69 l-7 56 38 5 c22 3 65 9 96 12 32
4 60 11 64 16 3 5 14 7 23 4 10 -3 29 -1 42 4 22 9 22 10 -11 11 l-35 1 39 18
c39 18 66 18 66 0 0 -5 -10 -8 -22 -6 -13 2 -17 2 -10 0 6 -3 12 -8 12 -13 0
-4 9 -6 20 -3 11 3 17 10 13 16 -4 6 4 8 21 5 32 -6 35 9 4 15 -20 5 -20 5 2
4 17 -2 25 -7 24 -20 -1 -10 3 -16 10 -14 6 2 10 13 8 24 -2 17 2 21 23 19 14
0 25 -4 25 -8z m1854 -4 c3 -8 2 -23 -3 -33 -12 -22 -7 -151 7 -160 5 -3 9
-19 9 -36 0 -30 4 -62 23 -170 5 -33 19 -123 31 -200 11 -77 27 -176 34 -220
7 -44 23 -150 35 -235 12 -85 24 -162 28 -170 3 -8 7 -28 8 -45 1 -16 8 -68
17 -115 8 -47 13 -88 11 -91 -2 -4 -30 -10 -61 -15 -32 -4 -62 -8 -68 -9 -5
-1 -27 -3 -48 -3 -26 -1 -37 -6 -35 -14 3 -7 -6 -21 -19 -32 -28 -21 -42 -16
-18 7 20 21 19 24 -7 23 -17 -1 -32 15 -65 69 -23 39 -46 75 -50 81 -8 11 -15
22 -54 94 -13 25 -27 47 -30 50 -4 3 -22 33 -40 68 -19 35 -39 71 -44 80 -6 9
-19 32 -29 51 -13 24 -20 30 -26 21 -5 -8 -1 -21 11 -33 10 -12 19 -24 19 -28
0 -4 3 -16 6 -26 3 -10 -4 -3 -16 14 -12 18 -26 30 -31 27 -5 -3 -9 -1 -9 5 0
5 -3 17 -7 27 -4 11 -3 15 4 11 17 -11 24 23 11 48 -7 12 -23 41 -36 64 -14
25 -27 39 -34 35 -7 -4 -8 -3 -4 5 4 6 -7 34 -24 62 -17 28 -40 76 -52 107
-27 74 -38 86 -25 25 6 -26 15 -51 20 -54 6 -4 7 -15 3 -25 -9 -25 15 -114 31
-114 7 0 13 -12 14 -27 l1 -28 8 25 c6 22 8 23 15 8 4 -10 11 -15 16 -12 5 3
9 1 9 -4 0 -14 -26 -33 -33 -25 -4 3 -7 -1 -7 -10 0 -9 5 -17 10 -17 6 0 10
-7 10 -15 0 -16 12 -20 23 -8 4 3 1 13 -6 21 -9 13 -9 14 1 8 8 -5 12 -1 12
10 0 27 16 4 23 -33 6 -28 4 -33 -13 -33 -10 0 -22 -5 -26 -12 -5 -8 -10 -6
-16 8 -5 11 -6 -3 -2 -36 9 -90 -4 -52 -21 58 -8 56 -15 104 -15 107 0 3 -4 5
-8 5 -4 0 0 -46 9 -102 10 -57 18 -116 19 -133 0 -23 3 -27 10 -15 7 10 8 4 4
-20 -3 -19 -1 -62 5 -95 10 -54 32 -187 48 -288 3 -21 14 -44 24 -51 16 -10
10 -12 -42 -13 -33 -1 -66 -6 -74 -13 -8 -7 -22 -10 -31 -6 -8 3 -23 2 -32 -3
-9 -4 -40 -11 -67 -14 l-50 -6 -18 117 c-10 64 -26 169 -37 232 -11 63 -22
138 -25 165 -11 101 -17 127 -40 150 -15 14 -26 19 -29 12 -8 -22 -4 78 5 103
7 21 8 20 4 -10 -4 -28 -3 -31 6 -17 8 13 2 77 -21 245 -17 125 -35 245 -40
267 -5 22 -14 72 -21 112 -6 40 -16 71 -22 70 -5 -1 -11 6 -12 16 -4 19 11 23
18 5 4 -9 8 -10 14 -3 4 6 18 10 30 9 21 -1 42 2 191 29 82 15 74 20 124 -73
57 -105 86 -156 174 -311 46 -80 84 -151 84 -158 0 -6 5 -11 10 -11 6 0 10 -5
10 -11 0 -17 41 -81 48 -75 2 3 -1 12 -8 21 -7 9 -10 19 -6 22 4 4 11 1 16 -7
6 -8 10 -10 10 -4 0 5 -6 16 -12 23 -11 11 -10 13 5 8 14 -5 18 -3 15 11 -2 9
-8 17 -15 17 -22 0 -26 15 -30 142 -2 70 -9 133 -15 140 -12 14 -2 67 11 59
11 -7 21 -56 11 -56 -8 0 4 -84 31 -204 11 -48 17 -104 14 -125 -4 -31 -3 -32
5 -11 8 21 9 20 5 -12 -3 -21 -1 -38 5 -40 6 -2 13 -21 16 -43 l6 -40 -21 40
c-12 21 -21 46 -21 55 -1 13 -2 12 -10 -2 -8 -12 -3 -29 18 -65 33 -57 82
-160 82 -173 0 -5 4 -11 9 -15 9 -5 -7 54 -27 105 -3 8 -6 24 -8 35 -1 11 -10
49 -19 85 -14 54 -55 301 -69 415 -2 17 -9 57 -14 90 -15 85 -32 198 -32 212
0 6 10 15 21 18 22 7 28 8 129 20 30 3 69 10 87 15 19 5 35 4 41 -2 6 -6 12
-6 16 1 4 6 2 11 -4 11 -6 0 -9 4 -5 9 3 5 -3 12 -12 14 -14 4 -14 5 3 6 12 0
25 -6 28 -15z m-1294 -268 c78 -37 140 -90 201 -174 30 -39 62 -75 72 -78 9
-3 17 -10 17 -15 0 -5 7 -9 15 -9 17 0 20 -16 5 -25 -5 -3 -10 -2 -10 3 0 6
-7 13 -16 16 -12 5 -15 2 -9 -11 43 -104 52 -134 90 -298 20 -84 37 -300 30
-360 -4 -27 -16 -83 -26 -124 -11 -40 -17 -76 -14 -79 10 -10 16 5 29 74 13
62 21 78 17 32 -1 -10 5 -28 13 -40 17 -25 22 -68 7 -68 -5 0 -12 -10 -14 -22
-3 -13 -3 -5 -2 17 l2 41 -43 -42 c-40 -40 -43 -46 -39 -87 5 -50 -13 -84 -39
-74 -14 6 -14 10 -4 27 7 11 14 16 16 10 8 -22 18 -8 18 25 0 19 -1 35 -2 35
-1 0 -13 -18 -28 -40 -15 -23 -43 -58 -62 -80 -24 -26 -31 -40 -22 -44 7 -3 3
-3 -10 0 -14 3 -30 0 -40 -9 -52 -45 -135 -66 -259 -67 -99 -1 -170 16 -227
55 -21 14 -42 23 -47 19 -5 -3 -8 -1 -7 4 2 5 -8 20 -22 33 -45 43 -118 145
-144 200 -128 282 -161 665 -74 879 14 34 60 124 67 130 33 30 93 100 86 100
-12 -1 -91 -70 -79 -70 4 0 5 -2 2 -5 -3 -3 -13 -3 -22 1 -13 5 -14 9 -5 20 6
8 17 14 24 14 16 0 40 28 31 37 -4 4 -11 1 -16 -7 -6 -10 -10 -11 -10 -3 0 7
9 17 19 23 24 12 34 13 27 1 -8 -13 49 -8 65 6 21 17 92 44 150 57 82 18 222
4 289 -28z m3182 -60 c3 -26 -1 -30 -32 -38 -43 -12 -62 -28 -33 -28 12 0 24
6 26 13 4 7 6 6 6 -5 1 -9 -5 -19 -11 -22 -7 -3 1 -3 19 0 38 6 42 1 49 -73 2
-32 9 -71 14 -88 4 -16 11 -56 15 -87 4 -32 10 -58 14 -58 5 0 5 19 0 43 -11
59 -10 66 6 37 12 -21 14 -22 15 -6 0 15 3 16 15 6 8 -7 15 -9 15 -4 0 5 11
-11 25 -35 29 -50 29 -51 11 -51 -8 0 -18 9 -21 20 -6 19 -34 27 -47 14 -8 -7
3 -45 11 -40 3 2 6 -11 6 -30 0 -38 -10 -45 -18 -13 -5 17 -11 20 -31 15 -14
-3 -28 -2 -31 4 -4 6 5 10 19 10 14 0 26 4 26 9 0 11 -53 1 -62 -13 -14 -21
-21 6 -41 151 -12 82 -26 151 -31 155 -6 4 -11 15 -11 24 0 23 -23 30 -31 9
-4 -10 2 -24 15 -36 11 -11 21 -30 21 -42 0 -13 7 -49 15 -81 9 -33 14 -60 12
-62 -11 -12 -31 23 -43 79 -9 37 -21 67 -27 67 -9 0 -9 2 0 8 10 6 9 14 -1 34
-10 19 -11 29 -3 37 9 9 8 14 -3 22 -12 8 -11 10 5 8 11 -1 26 -1 33 0 15 1
16 35 2 62 -10 17 -7 19 19 19 16 0 33 5 37 11 9 15 21 -7 26 -45z m-4174 -13
c-4 -35 -4 -35 29 -30 18 3 32 3 32 -1 -3 -20 2 -33 11 -27 5 3 6 13 3 23 -3
9 -3 14 2 10 4 -4 14 -3 22 3 15 13 43 -4 43 -27 0 -16 -16 -19 -25 -4 -3 6
-11 10 -17 10 -7 0 -7 -4 -1 -12 5 -7 16 -58 23 -113 7 -55 19 -122 26 -150
l14 -50 -5 70 c-3 39 -8 88 -11 110 -5 36 -4 38 9 23 9 -12 13 -36 11 -70 l-3
-53 11 45 c6 25 13 40 15 33 2 -6 0 -29 -6 -50 -6 -21 -11 -55 -11 -75 0 -38
-10 -45 -57 -39 -7 1 -13 -4 -13 -11 0 -9 -4 -8 -14 2 -9 9 -21 63 -31 135 -9
66 -21 130 -27 142 -13 25 -4 58 13 47 8 -4 9 -3 5 4 -9 15 -36 16 -36 1 0 -8
-4 -8 -14 0 -9 8 -13 26 -10 54 3 32 2 37 -5 22 -7 -15 -10 -16 -10 -4 -1 20
9 30 21 23 6 -4 8 -22 6 -41z m3160 -234 c-2 -27 2 -43 10 -46 8 -3 12 8 13
34 1 38 1 38 11 10 7 -21 7 -32 -1 -40 -17 -17 -13 -46 9 -59 11 -7 20 -18 20
-25 0 -18 17 -16 24 3 3 9 6 42 6 74 0 32 3 65 6 74 11 29 24 17 24 -21 0 -21
5 -56 10 -78 15 -67 16 -128 2 -133 -8 -2 -12 11 -12 45 0 26 -5 55 -10 63 -7
10 -10 -30 -10 -122 0 -80 -4 -139 -10 -143 -5 -3 -10 -17 -10 -31 0 -25 -14
-32 -25 -13 -4 5 0 18 9 28 12 14 16 40 16 114 0 90 -1 97 -20 97 -15 0 -20 7
-20 29 0 17 -4 33 -10 36 -5 3 -10 2 -10 -4 0 -6 -6 -8 -13 -5 -8 3 -12 17
-10 37 2 30 2 30 -6 7 -9 -25 -9 -25 -10 5 0 17 -3 46 -6 65 -4 27 -3 30 4 15
9 -19 10 -19 10 3 1 12 3 22 6 22 3 0 4 -19 3 -41z m1092 -233 c0 -12 9 -28
20 -36 11 -8 20 -26 20 -40 0 -14 7 -38 15 -54 18 -35 20 -82 3 -89 -9 -3 -14
10 -16 41 -1 24 -7 52 -12 61 -6 11 -8 -11 -4 -64 3 -44 9 -82 13 -85 5 -3 9
-18 9 -35 1 -16 3 -54 5 -82 4 -45 1 -53 -15 -58 -24 -8 -14 -25 11 -18 27 7
39 -56 14 -75 -16 -13 -16 -13 6 -7 16 5 22 3 19 -5 -2 -7 -16 -14 -30 -16
-21 -2 -26 1 -21 14 3 9 -3 6 -12 -8 -10 -14 -20 -27 -22 -30 -2 -2 -8 2 -13
10 -7 11 -10 8 -10 -12 0 -32 25 -39 34 -10 4 11 18 18 41 19 31 3 35 0 35
-22 0 -14 4 -25 9 -25 4 0 6 -11 4 -24 -5 -26 -14 -29 -128 -42 -33 -3 -64
-10 -70 -14 -5 -4 -26 -8 -45 -8 -19 0 -36 -6 -38 -11 -5 -16 -22 -13 -22 4 0
8 -7 15 -15 15 -9 0 -15 9 -15 24 0 14 -4 28 -10 31 -5 3 -10 14 -10 23 1 15
2 15 14 -1 13 -17 38 -17 86 0 8 3 34 5 58 4 38 -2 42 0 43 21 0 21 1 21 8 3
6 -15 9 -10 15 24 5 35 9 41 20 32 9 -8 16 -8 20 -2 3 5 2 11 -3 13 -13 5 -25
68 -12 68 6 0 11 7 11 15 0 10 -10 15 -32 15 -28 -1 -31 -3 -18 -13 9 -7 16
-28 17 -47 1 -19 -1 -28 -3 -20 -3 8 -8 22 -11 30 -4 8 -7 20 -7 25 -1 6 -9 9
-18 7 -19 -3 -32 13 -22 29 4 8 9 7 15 -2 6 -10 9 -8 9 9 0 12 5 22 11 22 6 0
9 -7 5 -15 -4 -12 4 -15 42 -13 36 1 40 2 15 5 -20 3 -33 10 -33 19 0 8 -9 14
-19 14 -26 0 -34 15 -27 46 8 30 30 21 24 -11 -3 -14 0 -22 9 -22 10 0 12 7 8
21 -8 23 -9 29 -20 136 -4 41 -12 81 -17 87 -6 7 -8 20 -4 28 3 8 1 15 -4 15
-6 0 -10 -4 -10 -10 0 -5 -7 -10 -15 -10 -8 0 -15 -7 -15 -16 0 -8 -4 -12 -10
-9 -5 3 -10 -3 -10 -14 l0 -21 -20 20 c-23 23 -18 43 8 38 21 -4 63 32 44 39
-6 3 -9 9 -6 15 4 6 2 13 -4 17 -10 6 -15 25 -13 49 1 7 16 12 40 12 22 0 43
5 46 10 10 16 35 -8 35 -34z m-4935 -58 c-2 -18 -1 -41 2 -50 6 -25 33 -23 33
2 0 11 7 20 15 20 8 0 15 -9 15 -20 0 -11 -7 -20 -15 -20 -20 0 -20 -44 0 -60
8 -7 20 -31 27 -54 6 -22 20 -49 30 -59 10 -10 18 -22 18 -26 0 -5 9 -11 19
-14 17 -4 20 -13 18 -66 -1 -33 -3 -61 -5 -61 -1 0 -16 29 -34 65 -17 36 -35
68 -39 71 -5 3 -9 16 -9 29 0 13 -4 25 -8 27 -4 2 -18 23 -30 48 -12 25 -26
52 -31 60 -17 27 -42 91 -47 115 -3 16 1 25 13 27 27 7 31 1 28 -34z m873 15
c-19 -5 -22 -12 -12 -37 3 -9 11 -13 18 -9 6 4 5 -1 -3 -10 -7 -9 -10 -17 -5
-17 5 0 10 -30 12 -67 1 -37 8 -73 14 -80 5 -7 8 -19 5 -27 -3 -8 -2 -29 3
-48 6 -20 6 -45 1 -63 -5 -17 -10 -22 -10 -13 -1 19 -26 14 -49 -9 -11 -11 -6
-13 28 -13 35 0 42 -4 51 -27 15 -39 7 -58 -24 -61 -15 -2 -27 -8 -27 -13 0
-5 11 -7 25 -3 15 4 25 2 25 -4 0 -6 -15 -12 -32 -14 -27 -2 -34 -8 -39 -33
-4 -20 -7 -23 -8 -10 -2 16 -5 14 -16 -10 l-14 -30 6 30 c3 17 14 39 24 51 16
17 18 25 8 52 -6 18 -9 39 -6 46 3 8 -2 16 -14 19 -22 6 -23 4 -6 -24 10 -17
10 -23 0 -26 -7 -3 -13 -13 -13 -22 0 -13 -7 -18 -22 -17 -31 1 -35 39 -8 66
14 14 19 27 14 45 -5 18 -2 25 9 25 8 0 17 -6 20 -12 10 -30 12 1 4 52 -9 47
-11 51 -18 30 l-7 -25 -1 28 c-1 15 4 27 10 27 6 0 8 8 4 20 -3 10 -9 48 -13
82 -6 55 -10 63 -27 60 -13 -2 -16 0 -8 5 6 5 15 21 19 37 4 16 10 23 14 17 9
-16 42 -2 36 15 -5 13 9 23 34 22 10 0 9 -2 -2 -5z m1664 -473 c3 14 4 -4 2
-40 -3 -61 -3 -63 7 -25 6 22 8 59 6 83 -3 23 -1 42 4 42 8 0 14 -43 11 -82
-1 -10 3 -18 8 -18 6 0 10 -13 10 -30 0 -16 4 -30 8 -30 4 0 8 -16 8 -35 0
-19 3 -38 8 -42 12 -12 27 20 21 46 -7 26 20 75 35 66 6 -4 10 7 10 24 0 34
23 43 35 14 4 -12 -1 -23 -14 -32 -12 -7 -21 -20 -21 -28 0 -7 -7 -16 -15 -19
-11 -5 -15 -21 -15 -60 0 -30 -4 -54 -10 -54 -5 0 -10 8 -10 18 -1 15 -2 15
-16 -3 -11 -14 -18 -16 -21 -7 -3 6 -13 12 -24 12 -24 0 -24 8 1 40 24 30 24
40 4 76 l-15 29 6 -40 c4 -27 1 -46 -8 -59 -12 -16 -15 -8 -25 77 -12 98 -14
178 -3 97 6 -37 8 -41 13 -20z m1569 50 c5 0 9 -4 9 -10 0 -5 -6 -10 -14 -10
-9 0 -12 -8 -8 -27 6 -28 6 -28 12 -4 l5 24 12 -26 c15 -33 7 -60 -16 -52 -10
3 -21 -3 -29 -16 -17 -27 -10 -34 18 -17 18 10 24 10 27 1 8 -21 43 -15 43 6
0 24 11 32 29 22 9 -6 10 -11 2 -15 -6 -4 -11 -15 -11 -25 0 -15 -11 -19 -60
-24 -34 -4 -69 -11 -80 -17 -10 -5 -37 -10 -60 -10 -38 0 -40 -2 -30 -20 9
-17 8 -20 -11 -20 -19 0 -21 4 -15 32 3 17 8 34 11 36 3 3 30 4 60 3 53 -2 73
10 39 23 -15 6 -14 9 5 30 17 18 22 36 23 75 0 42 3 51 15 47 8 -3 19 -6 24
-6z m-3159 -145 c4 -22 10 -65 13 -95 4 -30 13 -82 21 -115 15 -67 10 -77 -41
-73 l-30 3 -18 120 c-25 174 -26 177 -20 191 2 7 19 11 36 11 29 -2 32 -6 39
-42z m3704 -20 c-8 -8 -23 -15 -33 -15 -41 0 -60 -12 -60 -36 0 -13 4 -27 10
-31 6 -4 8 0 4 10 -3 10 -2 17 3 17 16 0 22 -21 10 -35 -7 -8 -10 -22 -6 -30
3 -8 4 -15 2 -15 -3 0 -11 -3 -20 -6 -10 -4 -16 -1 -16 9 0 10 -8 13 -25 9
-14 -2 -22 -8 -19 -13 3 -5 0 -9 -5 -9 -6 0 -11 5 -11 11 0 6 -8 8 -17 5 -10
-3 -45 -8 -78 -11 -33 -3 -75 -11 -92 -16 -18 -6 -36 -8 -41 -5 -4 2 -14 1
-22 -5 -10 -6 -11 -9 -2 -9 6 0 12 -5 12 -11 0 -5 -4 -8 -8 -5 -4 2 -14 0 -22
-5 -12 -8 -9 -9 10 -8 14 1 36 -3 50 -9 21 -9 16 -10 -30 -7 -30 2 -61 4 -69
5 -8 0 -11 7 -8 19 4 16 0 19 -22 18 -21 -2 -27 3 -29 24 -2 15 -11 30 -20 33
-9 3 -24 9 -32 12 -13 5 -13 4 0 -8 23 -20 20 -67 -4 -74 -17 -6 -225 -39
-290 -47 -26 -3 -34 64 -9 84 11 9 14 10 9 2 -5 -9 1 -11 21 -8 15 3 55 10 88
15 105 17 159 30 164 39 4 4 13 11 21 14 11 4 10 6 -5 7 l-20 1 20 9 c19 8 19
9 -2 9 -13 1 -24 -7 -28 -19 -5 -15 -12 -19 -33 -15 -22 4 -23 4 -7 -3 17 -8
13 -10 -20 -14 -40 -5 -62 1 -36 10 11 4 11 6 0 13 -10 6 -7 9 11 9 37 0 71
11 65 20 -10 16 15 21 51 11 26 -7 41 -7 55 2 14 9 21 9 30 0 15 -15 4 -32
-28 -44 -38 -14 -23 -20 20 -8 45 12 57 6 57 -27 0 -21 4 -25 23 -22 15 2 23
10 24 28 l2 25 -8 -25 c-9 -24 -9 -24 -10 6 -1 34 2 35 131 50 127 14 207 41
193 65 -3 3 15 4 39 2 26 -3 46 -1 50 6 4 6 12 11 17 11 6 0 4 -7 -5 -15z
m-1456 -184 c0 -11 3 -27 6 -36 5 -11 2 -16 -7 -14 -24 3 -79 -13 -79 -23 0
-6 8 -7 18 -3 9 3 40 9 67 12 46 6 49 5 36 -10 -9 -11 -10 -17 -2 -17 6 0 11
-6 11 -14 0 -8 4 -16 9 -18 15 -5 -8 -50 -29 -55 -11 -3 -20 -8 -20 -12 0 -3
-16 -6 -35 -7 -19 0 -35 3 -35 8 0 4 12 8 26 8 14 0 23 4 19 10 -3 6 4 10 17
10 31 0 47 17 41 41 -7 26 -20 24 -19 -2 1 -17 -5 -22 -29 -24 -50 -4 -63 3
-57 30 2 14 0 25 -5 25 -5 0 -10 -16 -11 -35 -1 -20 3 -33 8 -30 5 3 11 1 15
-5 3 -5 -6 -12 -20 -16 -14 -3 -25 -10 -25 -15 0 -5 -7 -6 -15 -3 -22 9 -18
24 5 24 11 0 20 5 20 11 0 7 -7 8 -17 4 -23 -9 -157 -31 -245 -40 l-66 -6 -7
31 c-4 17 -5 34 -2 36 3 3 25 7 49 10 23 2 54 7 68 10 71 16 196 32 202 26 3
-4 8 -18 11 -32 3 -18 5 -13 6 14 l1 39 -47 -7 c-60 -8 -173 -17 -153 -11 8 2
32 6 53 10 23 4 35 10 31 17 -4 7 5 8 27 3 25 -4 30 -3 19 4 -13 9 -13 11 3
11 9 0 17 -4 17 -10 0 -5 7 -10 15 -10 8 0 15 4 15 8 0 5 16 8 35 7 32 -2 35
1 41 31 7 36 34 48 34 15z m514 -56 c-3 -8 -18 -15 -33 -16 -22 0 -23 -1 -6
-8 15 -6 11 -9 -23 -14 -27 -5 -42 -12 -42 -22 0 -17 -16 -20 -25 -6 -3 6 -36
8 -73 6 l-67 -4 77 11 c81 11 87 15 84 73 -3 47 -23 41 -22 -6 l1 -43 -90 -13
c-49 -8 -101 -16 -115 -18 -14 -2 -40 -4 -57 -4 -29 -1 -33 -5 -34 -28 -1 -21
-3 -23 -6 -8 -2 11 -9 32 -14 47 -14 35 -4 67 20 61 10 -2 42 1 72 7 30 6 63
13 74 14 100 14 125 19 125 27 0 14 48 11 53 -3 4 -10 8 -10 14 -1 4 6 22 13
38 15 25 2 32 -2 42 -24 7 -15 10 -34 7 -43z m-1044 -75 c0 -5 9 -10 20 -10
11 0 20 5 20 10 0 6 12 9 28 9 20 -1 22 -3 6 -6 -17 -3 -21 -11 -20 -45 1 -38
-2 -42 -29 -49 -18 -5 -31 -5 -33 1 -5 14 -23 13 -19 -1 1 -6 -9 -12 -23 -13
-14 -1 -63 -8 -110 -16 -64 -11 -78 -16 -60 -21 20 -6 18 -7 -12 -6 -20 1 -34
5 -32 9 3 4 -13 4 -33 0 -79 -13 -87 -10 -87 28 -1 34 0 35 49 43 28 4 61 9
75 11 14 3 54 8 90 12 36 4 71 11 78 17 16 13 32 -7 32 -40 0 -13 4 -23 9 -23
11 0 11 49 0 56 -11 6 -2 24 12 24 5 0 9 -8 9 -17 1 -17 1 -17 11 0 5 9 7 22
4 27 -3 6 -1 10 4 10 6 0 11 -4 11 -10z m-602 -40 c22 -22 48 -40 57 -40 11 0
15 -13 17 -57 l2 -58 3 53 c4 50 5 52 34 52 16 0 29 5 29 12 0 23 28 -16 35
-49 6 -29 4 -33 -19 -39 -15 -3 -35 -4 -46 -1 -12 3 -17 1 -14 -5 3 -5 23 -9
43 -7 53 3 61 1 55 -16 -4 -8 -18 -15 -33 -15 -20 0 -23 -2 -11 -10 11 -8 7
-10 -17 -8 -40 3 -44 25 -5 31 20 4 18 4 -8 3 -26 -1 -35 -5 -34 -17 1 -11 -6
-16 -21 -15 -13 0 -21 4 -18 9 2 4 -1 7 -6 7 -6 0 -11 7 -11 15 0 11 -7 14
-22 11 -56 -12 -219 -37 -252 -38 -30 -1 -36 -5 -36 -23 0 -28 -23 -48 -47
-42 -14 4 -13 5 5 6 12 0 22 6 22 12 0 6 -7 8 -16 5 -9 -3 -22 -6 -30 -6 -9 0
-12 -4 -9 -10 4 -6 -7 -10 -25 -10 -20 0 -29 -4 -24 -11 4 -8 -3 -9 -22 -6
-58 11 -119 17 -101 9 11 -4 -13 -8 -60 -9 -43 0 -67 1 -53 3 14 2 50 8 80 14
30 5 72 12 92 15 31 5 38 11 43 35 8 38 24 39 22 3 -1 -16 -11 -34 -22 -41
-18 -12 -17 -13 10 -7 16 4 32 10 35 14 3 5 23 13 45 19 35 9 36 10 12 11 -16
1 -37 -4 -48 -9 -18 -10 -24 -3 -20 23 1 4 -4 17 -10 28 -9 17 -7 21 10 26 11
3 18 9 15 14 -7 11 -1 11 30 -1 20 -7 26 -16 26 -40 0 -32 13 -38 36 -16 14
15 10 46 -7 46 -4 0 -6 -6 -3 -14 3 -8 2 -16 -3 -19 -4 -3 -9 11 -11 30 -2 28
1 33 11 25 9 -8 26 -8 57 -1 25 6 96 18 158 28 l113 17 14 -30 13 -31 1 32 c1
29 -4 35 -36 48 -21 9 -49 13 -63 10 -23 -6 -24 -5 -7 7 17 13 17 15 3 27 -17
14 -22 41 -8 41 4 0 27 -18 50 -40z m-1053 -59 c-3 -5 -1 -12 4 -15 5 -3 12
-37 16 -76 l7 -70 44 0 c33 0 44 -4 44 -15 0 -26 30 -63 56 -69 13 -4 24 -11
24 -17 0 -6 -7 -8 -16 -5 -9 3 -21 3 -27 -1 -7 -5 0 -10 18 -15 25 -6 23 -7
-9 -3 -22 2 -43 9 -46 16 -6 8 -13 8 -30 -1 -24 -13 -36 -8 -25 10 4 7 21 10
37 8 16 -3 32 0 35 5 8 14 -127 -1 -144 -15 -19 -16 -23 -7 -29 58 -3 33 -9
73 -14 89 -4 17 -11 45 -14 62 -5 30 -3 33 27 42 31 9 31 9 5 10 -15 1 -30 -3
-33 -9 -9 -15 -25 -12 -25 5 0 11 12 15 51 15 28 0 48 -4 44 -9z m639 -54 c5
3 6 0 4 -8 -3 -8 -14 -13 -24 -11 -10 2 -28 3 -39 3 -11 -1 -39 -2 -62 -2 -24
0 -43 -5 -43 -11 0 -6 -12 -8 -30 -5 -16 4 -32 2 -35 -3 -3 -5 -28 -9 -55 -8
-27 0 -54 -3 -59 -7 -18 -10 -12 -25 9 -25 11 0 20 4 20 10 0 5 12 9 28 8 40
-1 142 11 182 22 58 16 67 13 73 -22 3 -18 2 -36 -2 -40 -3 -4 -51 -14 -106
-23 -55 -9 -122 -20 -150 -24 -31 -5 -52 -5 -56 1 -3 5 -9 2 -13 -7 -5 -14 -9
-15 -21 -5 -12 10 -15 9 -15 -3 0 -9 -8 -21 -18 -26 -25 -13 -59 16 -64 55 -5
36 6 48 45 51 23 2 29 -3 34 -28 6 -31 30 -39 39 -14 4 8 3 23 -1 33 -7 16 -8
15 -15 -3 -7 -15 -9 -16 -9 -4 -1 19 -21 29 -57 29 -13 0 -24 4 -24 8 0 4 15
6 34 4 26 -3 37 1 54 22 12 16 23 22 27 16 3 -5 1 -10 -4 -10 -6 0 -11 -5 -11
-11 0 -7 7 -8 18 -3 9 4 31 8 47 9 17 1 41 7 55 14 25 12 25 12 -5 8 -16 -2
-43 -1 -60 3 -21 5 -6 8 50 9 44 0 96 -3 115 -9 26 -8 36 -7 42 4 6 10 18 11
50 6 24 -5 47 -6 52 -3z m-290 -834 c-8 -13 -12 -33 -9 -46 4 -12 2 -35 -4
-49 -8 -20 -7 -28 5 -32 8 -3 14 -12 14 -21 0 -12 -4 -11 -20 5 -41 41 -40 18
2 -30 24 -27 47 -50 51 -50 5 0 6 4 3 9 -3 5 4 8 17 7 15 -1 22 -8 23 -23 1
-13 -2 -20 -7 -17 -5 3 -9 1 -9 -5 0 -10 18 -25 35 -27 6 0 23 -2 39 -2 26 -2
28 -5 24 -32 -4 -28 -1 -31 34 -40 39 -11 58 -34 58 -70 0 -19 5 -21 38 -18
25 2 37 -1 36 -9 -1 -7 -2 -23 -3 -35 l-1 -23 -13 24 c-12 25 -67 48 -67 30 0
-6 -4 -8 -10 -4 -5 3 -7 12 -4 19 3 8 -4 16 -16 19 -12 3 -24 15 -27 26 -3 11
-15 21 -27 23 -11 2 -21 9 -21 15 0 7 -10 20 -23 29 -42 29 -73 66 -68 80 3 7
0 11 -7 8 -7 -2 -35 21 -61 52 -40 46 -47 59 -39 77 13 31 5 65 -18 77 -13 7
-19 7 -19 0 0 -5 5 -10 10 -10 6 0 10 -5 10 -11 0 -5 -4 -8 -9 -4 -6 3 -14 -2
-19 -11 -7 -12 -11 -13 -17 -4 -4 7 -2 16 6 22 10 7 7 7 -8 3 -14 -4 -23 -2
-23 5 0 6 -5 8 -12 4 -7 -5 -8 -3 -3 6 4 7 2 16 -5 20 -7 4 -9 13 -5 21 6 9
10 7 16 -9 9 -24 17 -26 38 -13 12 7 12 13 3 24 -14 16 -6 27 19 27 10 0 21
-9 24 -20 4 -13 15 -20 31 -20 15 0 23 4 19 10 -4 6 -1 18 6 26 19 24 31 -6
13 -33z"/>
<path d="M3619 4581 c34 -9 37 -27 5 -35 -14 -4 -29 -5 -31 -2 -3 3 -12 -2
-20 -10 -18 -18 -26 -13 -17 10 3 9 12 16 20 16 8 0 14 5 14 10 0 24 -41 0
-78 -48 -48 -60 -68 -175 -53 -309 7 -57 21 -145 32 -195 10 -51 19 -96 19
-101 0 -5 7 -6 16 -3 20 8 43 -20 44 -50 0 -12 7 -25 16 -28 10 -4 13 -13 9
-28 -4 -15 -3 -18 3 -10 6 10 13 8 27 -8 10 -11 25 -20 34 -20 12 0 17 -11 19
-40 2 -38 -9 -53 -23 -30 -3 6 -1 10 4 10 6 0 11 5 11 11 0 15 -26 39 -42 39
-8 -1 -6 -6 6 -15 11 -8 17 -18 13 -22 -10 -9 -48 28 -40 40 3 6 1 7 -5 3 -8
-4 -16 4 -22 21 -6 15 -13 35 -17 43 -3 8 -7 23 -8 33 -2 21 -22 43 -31 35 -3
-3 -1 -14 4 -25 5 -10 18 -38 30 -63 25 -58 66 -106 105 -127 38 -19 136 -12
153 12 6 8 16 15 21 15 15 0 39 40 63 102 23 62 30 262 8 240 -7 -7 -11 -46
-11 -107 1 -52 -3 -95 -8 -95 -5 0 -9 10 -9 23 0 12 -5 29 -11 37 -8 13 -9 12
-7 -4 2 -10 -3 -21 -9 -23 -9 -3 -13 8 -13 39 1 40 2 42 15 24 8 -11 17 -17
20 -14 7 7 8 229 1 236 -3 3 -6 -10 -7 -29 l0 -34 -14 38 c-8 21 -12 51 -8 68
9 48 32 15 39 -59 4 -34 11 -62 16 -62 4 0 6 10 4 23 -3 12 -8 45 -11 72 -7
53 -37 172 -54 215 l-10 25 0 -24 c-1 -20 -3 -21 -16 -11 -12 10 -12 16 -4 26
13 15 4 64 -11 64 -6 0 -10 -7 -10 -15 0 -8 5 -15 10 -15 6 0 10 -8 10 -17 0
-13 -3 -14 -11 -6 -6 6 -18 9 -25 6 -18 -7 -18 1 1 38 14 27 14 31 -2 53 -17
22 -63 56 -77 56 -3 0 -6 -4 -6 -10 0 -5 6 -10 14 -10 7 0 19 -7 26 -15 10
-12 10 -15 -2 -15 -8 0 -19 5 -26 12 -9 9 -12 9 -12 0 0 -15 31 -31 55 -29 12
1 20 -5 22 -18 1 -11 0 -15 -3 -8 -3 8 -29 10 -85 6 -54 -4 -79 -2 -79 6 0 6
6 11 13 11 7 0 25 6 40 13 20 9 27 19 27 40 0 25 -3 27 -42 26 -34 -1 -38 -2
-19 -8z"/>
</g>
</svg>
